HIERARCHY
ROOT joint_Root
{
	OFFSET 0.0 0.0 0.0
	CHANNELS 6 Xposition Yposition Zposition Zrotation Xrotation Yrotation 
	JOINT Hips
	{
		OFFSET 4.5925 91.4895 -427.239
		CHANNELS 6 Xposition Yposition Zposition Zrotation Xrotation Yrotation 
		JOINT Spine
		{
			OFFSET 15.7357 0.0 0.0
			CHANNELS 6 Xposition Yposition Zposition Zrotation Xrotation Yrotation 
			JOINT Chest
			{
				OFFSET 8.98455 -0.406207 0.0
				CHANNELS 6 Xposition Yposition Zposition Zrotation Xrotation Yrotation 
				JOINT Neck
				{
					OFFSET 16.3773 0.0 0.0
					CHANNELS 6 Xposition Yposition Zposition Zrotation Xrotation Yrotation 
					JOINT Head
					{
						OFFSET 6.45672 0.0 0.0
						CHANNELS 6 Xposition Yposition Zposition Zrotation Xrotation Yrotation 
						End Site
						{
							OFFSET 0.0 0.0 0.0
						}
					}
				}
				JOINT Shoulder_L
				{
					OFFSET 12.9942 -0.242716 4.98039
					CHANNELS 6 Xposition Yposition Zposition Zrotation Xrotation Yrotation 
					JOINT UpperArm_L
					{
						OFFSET 5.34809 0.0 0.0
						CHANNELS 6 Xposition Yposition Zposition Zrotation Xrotation Yrotation 
						JOINT LowerArm_L
						{
							OFFSET 24.3286 1.87007e-05 0.0
							CHANNELS 6 Xposition Yposition Zposition Zrotation Xrotation Yrotation 
							JOINT Hand_L
							{
								OFFSET 22.2916 0.0 0.0
								CHANNELS 6 Xposition Yposition Zposition Zrotation Xrotation Yrotation 
								End Site
								{
									OFFSET 0.0 0.0 0.0
								}
							}
						}
					}
				}
				JOINT Shoulder_R
				{
					OFFSET 12.9945 -0.242716 -4.98039
					CHANNELS 6 Xposition Yposition Zposition Zrotation Xrotation Yrotation 
					JOINT UpperArm_R
					{
						OFFSET -5.34813 0.0 0.0
						CHANNELS 6 Xposition Yposition Zposition Zrotation Xrotation Yrotation 
						JOINT LowerArm_R
						{
							OFFSET -24.3289 0.000322201 0.0
							CHANNELS 6 Xposition Yposition Zposition Zrotation Xrotation Yrotation 
							JOINT Hand_R
							{
								OFFSET -22.2915 -0.000108084 0.0
								CHANNELS 6 Xposition Yposition Zposition Zrotation Xrotation Yrotation 
								End Site
								{
									OFFSET 0.0 0.0 0.0
								}
							}
						}
					}
				}
			}
		}
		JOINT UpperLeg_L
		{
			OFFSET -2.19248 -6.46944 0.0
			CHANNELS 6 Xposition Yposition Zposition Zrotation Xrotation Yrotation 
			JOINT LowerLeg_L
			{
				OFFSET 39.0811 0.0 -1.23785e-05
				CHANNELS 6 Xposition Yposition Zposition Zrotation Xrotation Yrotation 
				JOINT Foot_L
				{
					OFFSET 40.9854 0.0 -1.26872e-05
					CHANNELS 6 Xposition Yposition Zposition Zrotation Xrotation Yrotation 
					JOINT Toes_L
					{
						OFFSET 11.7543 0.0 0.0
						CHANNELS 6 Xposition Yposition Zposition Zrotation Xrotation Yrotation 
						End Site
						{
							OFFSET 0.0 0.0 0.0
						}
					}
				}
			}
		}
		JOINT UpperLeg_R
		{
			OFFSET -2.19251 6.46944 0.0
			CHANNELS 6 Xposition Yposition Zposition Zrotation Xrotation Yrotation 
			JOINT LowerLeg_R
			{
				OFFSET -39.0811 -0.00228153 -0.0401928
				CHANNELS 6 Xposition Yposition Zposition Zrotation Xrotation Yrotation 
				JOINT Foot_R
				{
					OFFSET -40.9854 0.0 0.0
					CHANNELS 6 Xposition Yposition Zposition Zrotation Xrotation Yrotation 
					JOINT Toes_R
					{
						OFFSET -11.7543 0.0 0.0
						CHANNELS 6 Xposition Yposition Zposition Zrotation Xrotation Yrotation 
						End Site
						{
							OFFSET 0.0 0.0 0.0
						}
					}
				}
			}
		}
	}
}
MOTION
Frames:	5
Frame Time:	0.0333333
0.000000 0.000000 0.000000 0.000000 0.000000 -0.000000 -2.948650 92.321600 -0.131031 89.803800 -4.420530 2.607990 15.735700 0.000005 -0.000001 76.152400 85.739100 -72.001400 8.984550 -0.406207 -0.000000 0.605641 -2.297880 8.309090 16.377300 -0.000001 -0.000001 3.113580 -1.430720 -2.701890 6.456720 -0.000001 -0.000000 0.258477 -2.857810 -0.875576 12.994200 -0.242716 4.980390 -84.700500 -11.139300 -64.353600 5.348090 -0.000007 -0.000001 -41.146200 -65.651000 -78.899400 24.328600 0.000019 0.000005 3.343560 2.970440 -48.439000 22.291600 -0.000001 0.000005 14.393500 5.384840 -2.451360 12.994500 -0.242716 -4.980390 87.879400 8.170180 -75.396200 -5.348130 -0.000001 -0.000004 -55.301400 27.119000 1.248630 -24.328900 0.000322 -0.000009 2.200540 4.824550 -24.564400 -22.291500 -0.000108 -0.000004 17.718400 5.455480 -4.837280 -2.192480 -6.469440 -0.000000 -174.021000 -17.512700 -1.346250 39.081100 -0.000007 -0.000012 -0.088055 0.245234 19.751400 40.985400 -0.000006 -0.000013 -1.307830 10.275200 -64.921600 11.754300 -0.000000 0.000003 -0.000079 -0.000842 -16.610000 -2.192510 6.469440 -0.000001 176.469000 26.208400 178.837000 -39.081100 -0.002282 -0.040193 -0.098232 0.273244 20.387900 -40.985400 0.000008 0.000006 4.881160 20.945600 -67.127600 -11.754300 -0.000006 -0.000006 -0.086131 -0.105328 -16.510100
0.000000 0.000000 0.000000 0.000000 0.000000 -0.000000 -3.029500 92.364300 -0.371880 89.857100 -3.993340 2.575720 15.735700 0.000005 -0.000001 76.942300 85.679600 -72.957800 8.984550 -0.406207 -0.000000 0.741029 -2.195450 7.978060 16.377300 -0.000001 -0.000001 2.670240 -1.348050 -2.489480 6.456720 -0.000001 -0.000000 -0.129297 -2.512350 -1.063140 12.994200 -0.242716 4.980390 -85.467700 -9.841600 -65.120800 5.348090 -0.000007 -0.000001 -35.188100 -62.241400 -68.879700 24.328600 0.000019 0.000005 3.381930 2.161100 -57.453300 22.291600 -0.000001 0.000005 14.779700 5.371370 -2.030210 12.994500 -0.242716 -4.980390 87.878500 8.179210 -75.405800 -5.348130 -0.000001 -0.000004 -55.894300 25.899200 0.358276 -24.328900 0.000322 -0.000009 1.910580 4.255070 -24.220100 -22.291500 -0.000108 -0.000004 17.908900 5.447160 -4.539110 -2.192480 -6.469440 -0.000000 -174.064000 -17.455500 -1.528310 39.081100 -0.000007 -0.000012 -0.086508 0.243747 19.540200 40.985400 -0.000006 -0.000013 -1.301990 10.650500 -64.583100 11.754300 -0.000000 0.000003 -0.000081 -0.000855 -16.610500 -2.192510 6.469440 -0.000001 176.504000 26.775400 178.785000 -39.081100 -0.002282 -0.040193 -0.095737 0.269351 20.191900 -40.985400 0.000008 0.000006 4.799480 21.101400 -66.878100 -11.754300 -0.000006 -0.000006 -0.000007 -0.000095 -16.577600
0.000000 0.000000 0.000000 0.000000 0.000000 -0.000000 -3.092970 92.380200 -0.594264 89.903900 -3.709060 2.633940 15.735700 0.000005 -0.000001 77.859800 85.563900 -74.054800 8.984550 -0.406207 -0.000000 0.989433 -2.089820 7.622880 16.377300 -0.000001 -0.000001 2.061240 -1.282810 -2.236380 6.456720 -0.000001 -0.000000 -0.459026 -2.266030 -1.149240 12.994200 -0.242716 4.980390 -86.352200 -8.206870 -65.935000 5.348090 -0.000007 -0.000001 -30.473100 -57.516400 -59.343000 24.328600 0.000019 0.000005 3.707540 1.553930 -67.277900 22.291600 -0.000001 0.000005 14.936900 5.362430 -1.753690 12.994500 -0.242716 -4.980390 87.874700 8.193110 -75.404000 -5.348130 -0.000001 -0.000004 -56.497800 25.146900 -0.709482 -24.328900 0.000322 -0.000009 1.600970 3.593570 -24.047200 -22.291500 -0.000108 -0.000004 18.165600 5.442980 -4.390570 -2.192480 -6.469440 -0.000000 -174.067000 -17.547700 -1.677610 39.081100 -0.000007 -0.000012 -0.084052 0.236919 19.533200 40.985400 -0.000006 -0.000013 -1.270760 11.024500 -64.372500 11.754300 -0.000000 0.000003 -0.000084 -0.000890 -16.611800 -2.192510 6.469440 -0.000001 176.503000 27.202600 178.696000 -39.081100 -0.002282 -0.040193 -0.096856 0.271603 20.245800 -40.985400 0.000008 0.000006 4.911110 21.243700 -66.813500 -11.754300 -0.000006 -0.000006 -0.000005 -0.000067 -16.576500
0.000000 0.000000 0.000000 0.000000 0.000000 -0.000000 -3.163210 92.395700 -0.795520 89.903100 -3.241530 2.677440 15.735700 0.000005 -0.000001 78.134900 85.464600 -74.520100 8.984550 -0.406207 -0.000000 1.187520 -2.071440 7.245760 16.377300 -0.000001 -0.000001 1.539910 -1.415070 -1.916970 6.456720 -0.000001 -0.000000 -0.845553 -2.081980 -1.166610 12.994200 -0.242716 4.980390 -87.249600 -6.516930 -67.061000 5.348090 -0.000007 -0.000001 -27.581600 -51.253900 -50.517600 24.328600 0.000019 0.000005 4.607520 1.048730 -77.196600 22.291600 -0.000001 0.000005 14.487900 5.358990 -1.648820 12.994500 -0.242716 -4.980390 87.833700 8.307180 -75.328500 -5.348130 -0.000001 -0.000004 -57.186200 24.527100 -1.579130 -24.328900 0.000322 -0.000009 1.319760 2.937930 -24.221900 -22.291500 -0.000108 -0.000004 18.537400 5.441160 -4.326370 -2.192480 -6.469440 -0.000000 -174.034000 -17.405800 -1.870680 39.081100 -0.000007 -0.000012 -0.086710 0.244168 19.551300 40.985400 -0.000006 -0.000013 -1.261000 11.338900 -64.175100 11.754300 -0.000000 0.000003 -0.000082 -0.000866 -16.610900 -2.192510 6.469440 -0.000001 176.548000 27.675200 178.683000 -39.081100 -0.002282 -0.040193 -0.096964 0.272362 20.214100 -40.985400 0.000008 0.000006 4.971270 21.235900 -66.728200 -11.754300 -0.000006 -0.000006 -0.000004 -0.000051 -16.575900
0.000000 0.000000 0.000000 0.000000 0.000000 -0.000000 -3.218300 92.394200 -0.988689 89.924500 -2.781520 2.717780 15.735700 0.000005 -0.000001 78.213200 85.362100 -74.853800 8.984550 -0.406207 -0.000000 1.385090 -2.080670 6.738820 16.377300 -0.000001 -0.000001 1.003500 -1.728620 -1.455630 6.456720 -0.000001 -0.000000 -1.216690 -1.961900 -1.097240 12.994200 -0.242716 4.980390 -88.117800 -4.737490 -68.305500 5.348090 -0.000007 -0.000001 -25.764600 -43.237000 -42.173500 24.328600 0.000019 0.000005 5.644430 0.414277 -85.802300 22.291600 -0.000001 0.000005 14.148400 5.360760 -1.702720 12.994500 -0.242716 -4.980390 87.766100 8.467790 -75.162700 -5.348130 -0.000001 -0.000004 -58.009800 24.079800 -2.323460 -24.328900 0.000322 -0.000009 0.999976 2.178450 -24.688700 -22.291500 -0.000108 -0.000004 18.593100 5.442190 -4.362650 -2.192480 -6.469440 -0.000000 -174.076000 -17.060500 -2.135490 39.081100 -0.000007 -0.000012 -0.088684 0.247769 19.693800 40.985400 -0.000006 -0.000013 -1.245830 11.472600 -64.057800 11.754300 -0.000000 0.000003 -0.000090 -0.000940 -16.613700 -2.192510 6.469440 -0.000001 176.621000 27.864100 178.555000 -39.081100 -0.002282 -0.040193 -0.095703 0.267087 20.342700 -40.985400 0.000008 0.000006 4.993990 20.929600 -66.694000 -11.754300 -0.000006 -0.000006 -0.000003 -0.000040 -16.575400
